<svg width="29" height="28" viewBox="0 0 29 28" fill="none" xmlns="http://www.w3.org/2000/svg">
<path fill-rule="evenodd" clip-rule="evenodd" d="M0.999232 13.5301C0.924113 21.093 6.93346 27.2483 14.4451 27.3797C22.0695 27.4923 28.2854 21.4308 28.3793 13.9055C28.4732 6.23004 22.4075 0.0559134 14.7644 -0.000383937C7.27149 -0.0566812 1.05557 6.04237 0.999232 13.5301ZM23.1587 11.2782V13.7178V16.1387C23.1587 16.4765 23.0272 16.7392 22.7268 16.9268C20.2104 18.597 17.6939 20.2673 15.1775 21.9562C14.8395 22.1814 14.5203 22.1814 14.1822 21.9562C11.6658 20.2673 9.14941 18.597 6.63299 16.9268C6.35131 16.7204 6.21985 16.4765 6.21985 16.1199V11.2219C6.21985 10.8653 6.35131 10.6214 6.65177 10.4149C9.14941 8.76349 11.6658 7.09329 14.1635 5.42309C14.5766 5.14159 14.802 5.14159 15.2151 5.42309C17.7127 7.09329 20.2104 8.76349 22.708 10.4149C23.0272 10.6401 23.1587 10.9029 23.1587 11.2782ZM13.9576 10.603V7.31886C12.0421 8.59497 10.1642 9.85232 8.26751 11.1284L8.5522 11.3183L8.9001 11.5507C9.51974 11.9646 10.1237 12.3681 10.7276 12.7611C10.7839 12.7799 10.8778 12.7799 10.9342 12.7423C11.63 12.2876 12.3164 11.8234 13.0068 11.3565C13.2852 11.1681 13.5643 10.9794 13.8449 10.7906C13.9013 10.7531 13.9576 10.6593 13.9576 10.603ZM20.3589 11.6151L20.3572 11.6163L20.3568 11.6166L20.3564 11.6168L20.3559 11.6171L20.3555 11.6174C19.7849 12.0015 19.2277 12.3765 18.6524 12.7423C18.596 12.7799 18.5021 12.7611 18.4458 12.7236C17.4693 12.0855 16.4928 11.4287 15.535 10.7719C15.4787 10.7343 15.4224 10.6593 15.4224 10.5842V7.30011C16.486 8.01916 17.5381 8.72085 18.5883 9.42125C19.4293 9.98213 20.269 10.5422 21.1125 11.1097C21.0142 11.1751 20.9168 11.2403 20.8199 11.3052C20.7403 11.3586 20.6611 11.4118 20.5821 11.4649C20.5095 11.5138 20.4371 11.5625 20.3649 11.6111L20.3589 11.6151ZM11.0838 18.156C12.0277 18.7848 12.9715 19.4136 13.92 20.0424C13.9225 20.0351 13.925 20.0283 13.9273 20.0222C13.9303 20.0146 13.9331 20.0078 13.9356 20.0017C13.9466 19.9752 13.9521 19.9619 13.9388 19.9486V16.7959C13.9388 16.7208 13.8637 16.627 13.8074 16.5894C12.8496 15.9326 11.8919 15.2946 10.9154 14.6565C10.859 14.619 10.7276 14.619 10.6712 14.6565C10.3522 14.844 10.0519 15.0503 9.75164 15.2566L9.75106 15.257C9.2628 15.5948 8.77454 15.9326 8.24873 16.2704C9.19231 16.8959 10.1312 17.5214 11.0701 18.1469L11.0838 18.156ZM21.1125 16.2704C20.1641 16.8991 19.2205 17.5277 18.2768 18.1564C17.3331 18.7851 16.3895 19.4138 15.4411 20.0424C15.4411 19.9896 15.4352 19.9426 15.43 19.9017C15.4259 19.87 15.4224 19.8418 15.4224 19.8172V16.8709C15.4224 16.7208 15.4787 16.627 15.5914 16.5519C16.0608 16.2422 16.5303 15.9279 16.9998 15.6136L17.0044 15.6105C17.4723 15.2972 17.9403 14.9839 18.4083 14.6753C18.4646 14.6377 18.596 14.6002 18.6524 14.6377C19.4787 15.1632 20.2862 15.7074 21.1125 16.2704ZM14.8027 15.3321C15.6102 14.7879 16.4177 14.2436 17.2627 13.6807C17.0497 13.5387 16.839 13.398 16.6301 13.2584C16.0105 12.8444 15.4066 12.441 14.8027 12.048C14.7463 12.0292 14.6149 12.048 14.5585 12.0855C13.7698 12.5922 12.9998 13.0989 12.2299 13.6244C12.1923 13.6431 12.1736 13.6619 12.136 13.6994C12.9623 14.2436 13.7886 14.7879 14.5961 15.3321C14.6524 15.3696 14.7463 15.3696 14.8027 15.3321ZM7.68535 14.9005V12.4796C8.08388 12.7534 8.47415 13.0107 8.87259 13.2734C9.07495 13.4068 9.27942 13.5416 9.48815 13.6806C8.88722 14.0935 8.30506 14.4876 7.68535 14.9005ZM20.4884 14.0878C20.8869 14.3505 21.2772 14.6078 21.6758 14.8817V12.4796C21.4671 12.6187 21.2626 12.7535 21.0603 12.8869C20.6618 13.1496 20.2716 13.4068 19.873 13.6806C20.0817 13.8197 20.2861 13.9544 20.4884 14.0878Z" fill="#864C9A"/>
</svg>
