<svg width="28" height="28" viewBox="0 0 28 28" fill="none" xmlns="http://www.w3.org/2000/svg">
<path fill-rule="evenodd" clip-rule="evenodd" d="M13.7404 27.4807C21.329 27.4807 27.4807 21.329 27.4807 13.7404C27.4807 6.15177 21.329 0 13.7404 0C6.15177 0 0 6.15177 0 13.7404C0 21.329 6.15177 27.4807 13.7404 27.4807ZM16.4669 22.0712C16.4851 22.0641 16.5032 22.0572 16.5213 22.0505C20.191 20.6891 22.4862 16.9475 22.1044 12.9489C21.6209 7.87671 17.0048 4.23788 12.132 5.18286C8.61049 5.86701 6.25523 8.04663 5.35159 11.6C4.44505 15.1648 5.49646 18.2104 8.22384 20.6196C8.97921 21.2863 9.85377 21.7608 10.7971 22.0917C11.1528 22.2159 11.4498 22.0947 11.4624 21.7916C11.4801 21.3893 11.4762 20.9857 11.4725 20.6074C11.4711 20.4569 11.4697 20.3103 11.4697 20.1694C11.334 20.1694 11.2017 20.1722 11.0718 20.175C10.7958 20.1808 10.5308 20.1864 10.2676 20.1645C9.47439 20.0949 8.86389 19.7397 8.54944 18.9428C8.34933 18.4345 8.0465 18.0037 7.58088 17.7017C7.50504 17.6531 7.45365 17.5635 7.40226 17.4738C7.37847 17.4323 7.35467 17.3908 7.32844 17.3534C7.37935 17.3393 7.43015 17.3251 7.48094 17.3109C7.57707 17.284 7.67314 17.2572 7.76984 17.2311C7.78041 17.2295 7.79182 17.2331 7.80338 17.2367C7.80931 17.2385 7.81528 17.2404 7.8212 17.2416C8.37065 17.3424 8.73937 17.6907 9.02669 18.1568C9.56403 19.0307 10.3712 19.3054 11.3102 18.9318C11.3844 18.903 11.475 18.8454 11.5036 18.7768C11.612 18.5128 11.711 18.2455 11.8136 17.9685C11.849 17.8729 11.8848 17.7762 11.9216 17.6781L11.9464 17.6823C11.9482 17.6824 11.95 17.6834 11.951 17.6841C11.9515 17.6846 11.9518 17.6847 11.9518 17.6847M11.9199 17.6775C11.9205 17.6776 11.9211 17.6777 11.9217 17.6778C11.9217 17.6779 11.9216 17.678 11.9216 17.6781L11.9198 17.6778L11.9199 17.6775ZM11.951 17.6841C11.9488 17.6822 11.9423 17.6759 11.9275 17.6589L11.9199 17.6775C11.8501 17.6651 11.7805 17.6536 11.7109 17.6421C11.6144 17.6262 11.518 17.6103 11.4212 17.5919C10.4638 17.4055 9.60133 17.0468 8.95208 16.2499C8.11724 15.2239 7.66858 12.5455 8.9075 11.128C8.96322 11.0649 8.98696 10.9278 8.96419 10.8423C8.80478 10.2546 8.82028 9.66979 8.9763 9.08551C9.10034 8.62197 9.14104 8.59812 9.6086 8.69152C10.2133 8.81374 10.7375 9.1198 11.2618 9.43479C11.3776 9.50435 11.5477 9.54558 11.6741 9.51478C12.7909 9.24947 13.9175 9.17395 15.0367 9.4328C15.545 9.55204 15.9432 9.48795 16.3711 9.19333C16.8149 8.88926 17.3183 8.69152 17.8678 8.66022C18.0243 8.64979 18.1086 8.69997 18.1594 8.86243C18.3649 9.51329 18.4162 10.1636 18.2399 10.8294C18.2171 10.9119 18.2195 11.0406 18.2675 11.0972C18.9303 11.9026 19.1081 12.8406 19.0447 13.8631C18.9206 15.8718 17.9487 17.0821 16.0775 17.5228C15.8828 17.5687 15.6852 17.6027 15.4749 17.639C15.38 17.6554 15.2825 17.6722 15.1816 17.6907C15.7276 18.2974 15.7441 19.0232 15.7334 19.7586C15.7233 20.398 15.7233 21.0364 15.7276 21.6758C15.7296 22.0202 15.9399 22.194 16.2684 22.1339C16.3355 22.1219 16.4014 22.0964 16.4669 22.0712M9.78385 19.2801C9.76363 19.2662 9.74341 19.2523 9.72295 19.2394C9.73485 19.2272 9.74723 19.2113 9.75963 19.1953C9.78663 19.1607 9.81375 19.1258 9.83633 19.1286C9.8934 19.1366 9.9485 19.1604 10.0201 19.1913C10.0549 19.2063 10.0935 19.223 10.1382 19.2404C10.1022 19.2676 10.0719 19.2943 10.0466 19.3166C10.0025 19.3554 9.97312 19.3813 9.95407 19.375C9.89385 19.3557 9.83882 19.3179 9.78385 19.2801ZM10.5893 19.4778C10.5297 19.4788 10.4284 19.4138 10.4173 19.3616C10.4075 19.3168 10.4304 19.2643 10.4571 19.2032C10.47 19.1736 10.4839 19.142 10.4953 19.1082C10.5528 19.1614 10.5965 19.2016 10.6312 19.2336C10.6936 19.2911 10.7272 19.322 10.7608 19.3536C10.743 19.3674 10.7254 19.3844 10.7078 19.4014C10.6683 19.4394 10.6292 19.4772 10.5893 19.4778ZM11.1289 19.2381C11.1738 19.2009 11.2187 19.1636 11.2691 19.1514C11.2938 19.1452 11.3285 19.1831 11.3635 19.2214C11.3793 19.2385 11.3951 19.2558 11.4101 19.2692C11.3746 19.3019 11.3394 19.3351 11.2981 19.3741C11.2716 19.3991 11.2426 19.4264 11.2095 19.4575C11.1821 19.4228 11.1593 19.3944 11.1391 19.3692C11.1139 19.3377 11.0926 19.3112 11.0714 19.2836C11.0908 19.2697 11.1099 19.2539 11.1289 19.2381ZM9.27677 19.026C9.22579 18.962 9.18603 18.9121 9.15751 18.8568C9.14927 18.8399 9.24763 18.7435 9.25248 18.7475C9.32322 18.8007 9.39493 18.8588 9.44774 18.9298C9.4544 18.9388 9.43326 18.9701 9.40287 19.0151C9.38462 19.0422 9.36303 19.0741 9.34211 19.1092C9.3186 19.0785 9.29682 19.0511 9.27677 19.026Z" fill="#864C9A"/>
</svg>
